<svg version="1.1" id="Layer_1" xmlns="http://www.w3.org/2000/svg" xmlns:xlink="http://www.w3.org/1999/xlink" x="0px" y="0px"
	 width="100%" viewBox="0 0 652 590" enable-background="new 0 0 652 590" xml:space="preserve">
<path fill="#FEFEFE" opacity="1.000000" stroke="none" 
	d="
M446.000000,591.000000 
	C297.333405,591.000000 149.166794,591.000000 1.000139,591.000000 
	C1.000093,394.333466 1.000093,197.666962 1.000046,1.000324 
	C218.333084,1.000216 435.666168,1.000216 652.999451,1.000108 
	C652.999634,197.666336 652.999634,394.332672 652.999817,590.999512 
	C584.166687,591.000000 515.333313,591.000000 446.000000,591.000000 
M364.197754,91.538681 
	C364.199097,120.030235 364.205078,148.521790 364.190887,177.013336 
	C364.189972,178.841278 364.250366,180.711182 363.906982,182.489075 
	C362.933075,187.531219 358.576874,190.833160 353.448547,190.634811 
	C348.353119,190.437744 344.383942,186.749115 343.816681,181.552979 
	C343.636719,179.904327 343.719757,178.224564 343.719574,176.559036 
	C343.715057,134.904434 343.716248,93.249832 343.712402,51.595234 
	C343.712250,49.929504 343.838928,48.241577 343.619659,46.602356 
	C343.041016,42.276524 340.708191,39.078701 336.538391,37.767555 
	C332.418945,36.472256 328.167908,37.178825 325.758362,40.835915 
	C324.061707,43.410923 323.106018,46.960648 323.089783,50.081757 
	C322.909576,84.737434 322.979462,119.394417 322.972809,154.051041 
	C322.972473,155.882385 323.110016,157.750687 322.806885,159.537949 
	C321.992218,164.341370 319.017181,167.356415 314.262848,168.082794 
	C309.503632,168.809891 305.606689,166.935287 303.698242,162.400375 
	C302.768219,160.190491 302.486694,157.571365 302.472565,155.134216 
	C302.369324,137.306625 302.453979,119.478012 302.378967,101.650146 
	C302.351166,95.037048 298.046387,90.520782 292.130829,90.555908 
	C286.101929,90.591705 281.862610,94.962021 281.849396,101.660278 
	C281.790955,131.318069 281.444305,160.983078 281.963989,190.632141 
	C282.559540,224.609283 316.361511,248.333115 348.743561,238.080170 
	C370.512512,231.187576 384.821198,211.736420 384.920013,188.309525 
	C385.064087,154.153351 384.958801,119.996140 384.955109,85.839371 
	C384.954987,84.840622 384.984467,83.831184 384.858154,82.844910 
	C384.152374,77.333321 379.626282,73.211021 374.410583,73.279015 
	C368.882660,73.351082 364.568756,77.662682 364.243378,83.560646 
	C364.115051,85.886574 364.206512,88.224640 364.197754,91.538681 
M288.097809,309.427917 
	C282.225952,313.638947 280.227173,318.641541 282.116089,324.398956 
	C283.888855,329.802399 288.719055,333.150909 295.250214,333.164673 
	C320.410034,333.217743 345.570099,333.229034 370.729858,333.169189 
	C379.213959,333.149017 385.082031,327.875458 385.124817,320.544037 
	C385.170410,312.731537 379.643188,307.827515 370.624725,307.595734 
	C367.134033,307.506012 363.599426,307.573853 360.168365,307.036560 
	C352.688324,305.865143 347.045471,299.437958 346.503754,291.943573 
	C345.831299,282.640533 350.492859,276.797821 360.950714,273.165253 
	C388.740021,263.512573 407.410400,244.660080 416.715851,216.784225 
	C423.152863,197.501083 420.701172,177.508240 420.363312,157.764160 
	C420.253998,151.375549 413.776367,147.074326 407.198975,147.441467 
	C400.721558,147.803040 395.487671,152.604202 395.240356,159.270081 
	C394.888489,168.754822 395.403870,178.275482 394.940613,187.751068 
	C394.609589,194.522018 394.014435,201.440628 392.271698,207.954834 
	C383.763794,239.756470 347.994659,259.354889 316.686890,249.730972 
	C289.271973,241.303711 271.983887,217.978134 271.622528,188.805222 
	C271.506958,179.475784 271.759125,170.139587 271.523712,160.814545 
	C271.315125,152.552994 265.980133,147.303574 258.493225,147.437943 
	C250.894043,147.574295 246.033813,152.792191 245.971405,161.225754 
	C245.894943,171.554779 245.824295,181.890961 246.111435,192.214035 
	C246.642380,211.301285 253.136520,228.365829 264.626068,243.490158 
	C275.494873,257.797333 289.509064,267.885193 306.638916,273.474548 
	C313.849670,275.827362 319.043884,280.019531 320.025940,287.939728 
	C321.391876,298.956085 314.138275,306.900208 302.524811,307.608948 
	C297.928070,307.889465 293.355560,308.567047 288.097809,309.427917 
M191.294647,424.499908 
	C191.296951,431.495361 191.301239,438.490814 191.300720,445.486267 
	C191.300461,448.895386 191.865936,452.157410 196.102402,452.274353 
	C200.595459,452.398407 201.479630,449.028870 201.488174,445.433380 
	C201.530136,427.778442 201.746735,410.118713 201.418701,392.469696 
	C201.159012,378.497589 189.059952,371.622650 176.378281,377.623230 
	C174.947891,378.300049 172.606567,378.137787 171.121109,377.440796 
	C158.862656,371.689209 146.719437,378.853882 146.410141,392.300476 
	C146.234009,399.958130 146.361603,407.623047 146.371063,415.284698 
	C146.384003,425.777283 146.361313,436.270416 146.469986,446.762115 
	C146.502884,449.937042 147.905212,452.399445 151.494232,452.328552 
	C154.989212,452.259552 156.402451,449.991516 156.412491,446.685333 
	C156.416534,445.352966 156.434937,444.020630 156.435410,442.688263 
	C156.441238,426.199066 156.453537,409.709839 156.443253,393.220642 
	C156.440659,389.056549 157.715851,385.961823 162.510178,385.753723 
	C166.921494,385.562225 168.786240,387.874817 168.805252,393.898560 
	C168.859406,411.053864 168.830002,428.209381 168.829498,445.364838 
	C168.829391,448.986176 169.462173,452.350677 174.018585,452.294617 
	C178.282364,452.242126 178.924850,448.917084 178.966858,445.571838 
	C179.048416,439.077118 178.984344,432.580658 178.985321,426.084900 
	C178.986969,415.092102 178.894577,404.098053 179.034790,393.106995 
	C179.111603,387.087311 182.081131,384.589050 187.056015,385.950317 
	C190.994965,387.028107 191.252640,390.291718 191.271896,393.519592 
	C191.331482,403.512726 191.294312,413.506409 191.294647,424.499908 
M113.347237,443.254852 
	C113.357956,444.419250 113.292801,445.590302 113.393974,446.746765 
	C113.670212,449.904297 115.033401,452.340393 118.525108,452.322388 
	C121.985115,452.304565 123.601707,449.935699 123.609413,446.738159 
	C123.654732,427.939484 123.901375,409.132904 123.434532,390.344971 
	C123.205467,381.126190 115.971123,375.391083 106.661896,375.623108 
	C97.816109,375.843567 91.188881,382.096344 91.077232,391.129395 
	C90.851067,409.427490 91.000648,427.730225 90.990585,446.031036 
	C90.988731,449.403748 92.117569,452.155457 95.867622,452.301392 
	C99.981453,452.461487 101.184372,449.537445 101.217682,445.992462 
	C101.270828,440.336304 101.242500,434.679321 101.243134,429.022705 
	C101.244392,417.730957 101.242851,417.730957 113.348907,419.600922 
	C113.348907,427.088898 113.348907,434.700958 113.347237,443.254852 
M289.633392,435.488342 
	C289.633301,421.008423 289.630432,406.528473 289.634338,392.048553 
	C289.636078,385.667633 292.428925,383.412018 298.056427,386.322083 
	C300.144867,387.402069 301.821136,391.313232 301.872498,393.968384 
	C302.207275,411.271240 302.045685,428.583740 302.041229,445.893066 
	C302.040314,449.413818 302.924957,452.386383 307.169189,452.309692 
	C311.080750,452.239075 312.109375,449.313538 312.119507,446.090942 
	C312.176697,427.949829 312.276703,409.806610 312.057495,391.667816 
	C311.961792,383.747681 307.022003,376.907440 300.420258,376.178589 
	C293.736145,375.440613 286.907043,376.015808 279.616943,376.015808 
	C279.616943,377.991333 279.616943,379.778442 279.616943,381.565552 
	C279.616974,401.204987 279.613281,420.844452 279.621887,440.483887 
	C279.622925,442.812439 279.103333,445.370972 279.898071,447.403290 
	C280.655914,449.341370 282.573700,451.676392 284.415070,452.149475 
	C287.505737,452.943481 289.288818,450.527924 289.458984,447.456573 
	C289.661255,443.806030 289.587433,440.140228 289.633392,435.488342 
M357.458435,408.926910 
	C355.636536,410.333160 352.944214,411.428131 352.291748,413.252594 
	C351.839630,414.516876 354.198486,416.786591 355.301788,418.606812 
	C355.927582,419.639313 357.059662,420.654663 357.094360,421.706390 
	C357.258881,426.694702 357.240356,431.697205 357.055878,436.686066 
	C356.929016,440.116852 355.244049,442.222290 351.453979,442.314911 
	C347.554077,442.410217 345.217682,440.534943 345.177460,436.819946 
	C345.013458,421.667908 345.030365,406.512543 345.149078,391.359711 
	C345.178558,387.595215 347.494537,385.669495 351.323944,385.711884 
	C355.275787,385.755585 356.994354,387.951324 357.131317,391.691528 
	C357.204376,393.686432 356.643494,396.038025 357.513428,397.584778 
	C358.569885,399.463043 360.867035,401.859558 362.565125,401.811890 
	C364.197144,401.766144 366.259583,399.126221 367.179871,397.176422 
	C367.952515,395.539459 367.438660,393.250916 367.346527,391.257721 
	C366.920959,382.054901 360.809875,375.915710 351.874329,375.649628 
	C342.574402,375.372681 335.318756,381.150238 335.054260,390.338959 
	C334.599243,406.145630 334.660034,421.981689 335.051147,437.791931 
	C335.247040,445.708923 341.618744,451.725708 349.007629,452.359375 
	C357.918976,453.123596 365.737610,448.754913 366.604523,440.543701 
	C367.691376,430.248962 366.866089,419.752380 366.866089,408.887360 
	C363.841827,408.887360 361.047272,408.887360 357.458435,408.926910 
M224.738464,387.511322 
	C224.545578,389.159149 224.190430,390.806488 224.185242,392.454926 
	C224.140091,406.784393 224.071930,421.114777 224.185394,435.443512 
	C224.267456,445.806152 230.751663,452.446594 240.420670,452.412354 
	C250.217865,452.377655 256.545227,445.890106 256.626160,435.473999 
	C256.737457,421.145203 256.728149,406.814575 256.643921,392.485504 
	C256.592743,383.778442 251.562683,377.165100 244.341827,375.924500 
	C234.791260,374.283600 228.644119,377.723083 224.738464,387.511322 
M493.262085,375.836334 
	C484.645386,377.796265 480.210083,383.278992 480.123566,392.671173 
	C479.993195,406.828827 480.001373,420.989563 480.161652,435.146576 
	C480.192841,437.902954 480.737335,440.842926 481.824463,443.361847 
	C484.886871,450.457611 491.978302,453.719147 500.053009,452.199005 
	C506.805267,450.927856 512.143127,445.213440 512.327209,437.734161 
	C512.691650,422.918518 512.621277,408.088989 512.531494,393.266418 
	C512.458374,381.184296 506.268890,375.453552 493.262085,375.836334 
M434.413239,376.723755 
	C428.982727,378.946686 425.773651,383.273499 425.101410,388.779327 
	C424.421143,394.351135 424.377319,400.147583 425.110748,405.706299 
	C425.949860,412.065796 429.829895,416.712372 436.307770,418.396301 
	C447.068420,421.193542 447.092255,421.102295 447.070251,432.281982 
	C447.068298,433.280823 447.087585,434.280457 447.054413,435.278320 
	C446.942535,438.643433 446.325378,441.694855 442.195007,442.222809 
	C438.002289,442.758759 435.550354,441.041382 434.922119,436.713959 
	C434.430023,433.324402 432.635925,431.025269 428.856628,431.706177 
	C424.642273,432.465546 424.490723,435.728912 424.962006,439.064392 
	C425.977539,446.251770 431.981537,451.859100 439.097382,452.383057 
	C447.547363,453.005249 454.713257,449.283783 455.984772,441.711914 
	C457.192871,434.517731 456.916473,426.865753 455.969543,419.587219 
	C455.270477,414.214020 450.863037,410.841614 445.346222,409.572021 
	C434.899811,407.168030 434.899994,407.164673 434.915680,396.354462 
	C434.917603,395.022705 434.893372,393.689545 434.944244,392.359467 
	C435.076874,388.890991 436.077942,386.097504 440.181885,385.752716 
	C444.179810,385.416931 446.477539,387.101440 447.055115,391.181702 
	C447.570801,394.824677 449.512360,397.222260 453.475220,396.252106 
	C457.155975,395.351074 457.582550,392.302490 457.055969,389.071442 
	C455.385651,378.821991 447.145630,374.075531 434.413239,376.723755 
M546.763245,406.485229 
	C546.418152,402.045471 545.932251,397.610748 545.772949,393.164337 
	C545.648376,389.682861 546.165222,386.287109 550.645752,385.778595 
	C555.153259,385.267029 557.429993,387.459351 558.024841,391.888611 
	C558.472778,395.223389 560.575317,397.046539 563.973816,396.329071 
	C567.365173,395.613159 568.241638,392.930725 567.934265,389.796051 
	C567.110168,381.389954 560.292114,375.536652 551.487122,375.626953 
	C542.747131,375.716583 536.376099,381.287811 535.779480,389.821991 
	C535.431885,394.794769 535.461975,399.828461 535.782043,404.805176 
	C536.238342,411.901184 541.368347,417.384003 548.138062,418.593048 
	C557.925842,420.341095 557.926270,420.341064 557.938110,430.387238 
	C557.939819,431.887054 557.963379,433.387512 557.929077,434.886566 
	C557.847595,438.441956 557.161072,441.640137 552.847778,442.226135 
	C548.571899,442.807007 546.357544,440.848053 545.667664,436.594116 
	C545.130371,433.281677 543.288696,430.979340 539.466187,431.714539 
	C535.427124,432.491302 535.455811,435.632904 535.770996,438.742523 
	C536.581116,446.736298 543.183533,452.433289 551.536621,452.427673 
	C560.597778,452.421600 567.133789,446.716034 567.912476,437.645020 
	C568.309814,433.015656 568.306885,428.293304 567.893188,423.665924 
	C567.169922,415.574890 561.882629,410.426147 553.855652,409.091797 
	C551.624084,408.720825 549.478027,407.835266 546.763245,406.485229 
M334.449127,520.222412 
	C331.323822,513.087585 325.778839,508.728027 318.199860,507.860535 
	C310.376892,506.965149 302.443237,507.037140 294.479431,506.682404 
	C294.479431,523.381897 294.479431,539.222961 294.479431,554.969910 
	C302.236053,554.969910 309.728394,555.494202 317.113251,554.827698 
	C325.061493,554.110413 331.058777,549.667358 334.369507,542.229309 
	C337.482574,535.235291 337.293396,528.066406 334.449127,520.222412 
M236.811615,520.893799 
	C234.167892,514.498108 229.578491,509.590881 222.878387,508.490082 
	C214.188919,507.062469 205.263184,507.073059 196.368134,506.459625 
	C196.368134,523.442993 196.368134,539.178528 196.368134,555.751343 
	C204.663162,555.388977 212.903976,555.919373 220.789841,554.490723 
	C235.168182,551.885803 241.810486,537.692383 236.811615,520.893799 
M144.988937,539.196960 
	C145.787674,550.515137 153.566910,557.204407 165.501434,556.835449 
	C178.375031,556.437439 185.102783,549.589722 185.168671,536.793335 
	C185.191833,532.293762 185.172806,527.793945 185.172897,523.294250 
	C185.172989,517.873901 185.172913,512.453491 185.172913,507.216187 
	C182.148331,507.216187 179.864883,507.216187 177.170486,507.216187 
	C177.170486,517.568298 177.246307,527.694641 177.146149,537.819275 
	C177.068130,545.706909 172.781143,549.945007 165.147232,549.984680 
	C157.612061,550.023804 153.164612,545.763000 152.868256,537.969116 
	C152.697418,533.475769 152.829193,528.970886 152.827820,524.471191 
	C152.826050,518.698120 152.827393,512.924988 152.827393,507.183655 
	C149.916519,507.183655 147.638657,507.183655 144.986145,507.183655 
	C144.986145,517.672974 144.986145,527.967896 144.988937,539.196960 
M252.033966,552.575378 
	C252.774811,550.549927 253.750198,548.575500 254.204514,546.487732 
	C254.992783,542.865234 257.053192,541.852661 260.607941,542.094604 
	C265.243286,542.410034 269.916321,542.171753 274.761353,542.171753 
	C275.697998,544.560181 276.622437,546.855103 277.500244,549.167786 
	C280.176147,556.217834 280.169189,556.220459 287.951782,554.824097 
	C282.215607,539.960815 276.410126,525.173645 270.851196,510.294312 
	C269.765350,507.387817 268.179443,506.762451 265.341278,506.734100 
	C262.454041,506.705231 260.994598,507.486572 259.942841,510.336029 
	C255.406281,522.626770 250.595673,534.816406 245.874832,547.039062 
	C244.843384,549.709534 243.771103,552.364258 242.717621,555.026184 
	C243.082718,555.459412 243.447815,555.892639 243.812912,556.325806 
	C246.479279,555.325256 249.145645,554.324646 252.033966,552.575378 
M448.910126,523.721252 
	C454.750305,515.637939 461.265961,514.981873 472.243805,521.706909 
	C472.761261,521.019165 473.382660,520.245422 473.944855,519.430847 
	C474.465698,518.676147 474.923187,517.877808 475.382782,517.140137 
	C466.044281,509.617554 453.507690,509.521301 445.921936,516.673523 
	C437.690155,524.434814 436.058960,539.295715 443.343933,548.083252 
	C446.216614,551.548462 450.789337,554.279175 455.126007,555.688354 
	C460.800018,557.531982 466.572235,555.988098 469.863525,552.602966 
	C472.708771,553.977844 474.682922,554.931824 477.173828,556.135437 
	C477.173828,547.755981 477.173828,540.838013 477.173828,533.730835 
	C471.300995,533.730835 465.712372,533.730835 459.827576,533.730835 
	C459.827576,535.463867 459.827576,537.024048 459.827576,538.993713 
	C463.524200,538.993713 467.122223,538.993713 472.270569,538.993713 
	C470.644379,542.531799 470.099335,545.919434 468.111420,547.638977 
	C461.555817,553.309387 451.099121,550.380737 447.922058,542.298828 
	C445.564697,536.302185 445.880188,530.269714 448.910126,523.721252 
M532.548950,541.486694 
	C532.548950,545.935913 532.548950,550.385132 532.548950,554.809937 
	C535.117432,554.809937 537.161438,554.809937 539.702393,554.809937 
	C539.702393,548.878296 539.702393,543.295654 539.702393,537.795044 
	C548.632935,537.014160 551.284546,538.640808 555.857056,549.689758 
	C558.025940,554.930786 561.035522,556.216614 567.046204,554.390259 
	C562.703979,547.647949 558.528625,541.164734 554.390808,534.739807 
	C553.926453,534.973877 554.352722,534.703369 554.815918,534.533875 
	C561.742798,531.998291 564.315857,528.761902 563.819031,523.183350 
	C563.322876,517.612427 558.975281,513.360229 552.215271,512.885071 
	C545.816528,512.435364 539.361328,512.788391 532.548950,512.788391 
	C532.548950,522.244446 532.548950,531.368103 532.548950,541.486694 
M87.332436,556.263611 
	C95.721603,557.303467 103.401649,555.910278 110.061134,549.964294 
	C108.649956,547.773987 107.450859,545.912842 106.236542,544.028015 
	C98.057671,550.305359 90.317467,551.559937 84.103668,547.904602 
	C78.031044,544.332336 74.837219,535.942993 76.222351,527.202515 
	C77.634041,518.294434 83.289421,511.991913 91.024849,512.456482 
	C95.807610,512.743652 100.455330,515.279602 105.822205,517.019470 
	C106.384140,516.349792 107.722313,514.755005 109.036995,513.188232 
	C100.787109,505.412933 89.820137,503.521729 80.658539,508.050262 
	C71.215500,512.717896 66.483749,523.120239 67.909233,536.078552 
	C69.037209,546.332336 75.668343,553.498474 87.332436,556.263611 
M522.442749,532.453735 
	C522.442749,525.992004 522.442749,519.530212 522.442749,512.875122 
	C519.972412,512.875122 517.928223,512.875122 515.538879,512.875122 
	C515.538879,521.995239 515.626831,530.800720 515.508789,539.603394 
	C515.426208,545.757141 512.842590,549.054993 507.671051,550.166443 
	C499.754364,551.867859 494.126373,547.499329 494.031799,539.393860 
	C493.929138,530.598633 494.008514,521.801331 494.008514,512.783936 
	C491.546875,512.783936 489.462067,512.783936 487.085602,512.783936 
	C487.085602,522.796631 486.630890,532.616943 487.214447,542.375244 
	C487.788910,551.981445 495.122223,556.645569 507.248169,556.149902 
	C516.179688,555.784729 522.149902,549.834229 522.446533,540.931946 
	C522.529724,538.435059 522.448547,535.932678 522.442749,532.453735 
M600.371643,551.261780 
	C601.467529,556.645996 605.340027,555.139832 609.172241,554.916260 
	C603.894287,541.277100 598.775513,527.976990 593.586182,514.704529 
	C592.635498,512.273010 587.522278,511.089233 585.668091,512.765625 
	C585.326782,513.074097 585.160156,513.605652 584.983215,514.061462 
	C579.729065,527.597351 574.483704,541.136780 569.282288,554.558777 
	C575.570312,556.981995 577.855896,553.613647 578.874695,548.672791 
	C579.720642,544.570496 581.882080,542.704102 586.149231,543.421997 
	C587.444763,543.639954 588.853516,543.679260 590.132202,543.418030 
	C596.041870,542.210510 599.092468,544.863098 600.371643,551.261780 
M388.522156,554.299194 
	C397.668518,548.346985 397.214264,537.943909 387.469238,533.126038 
	C383.619720,531.222839 379.278442,530.233398 375.621521,528.055115 
	C373.742279,526.935669 371.458832,523.714172 371.899475,522.165894 
	C372.485840,520.105469 375.551025,517.374451 377.548859,517.376465 
	C381.783295,517.380737 386.016174,518.967712 390.878479,520.045044 
	C391.304596,519.457397 392.337677,518.032837 393.461823,516.482666 
	C387.036407,511.089569 379.923492,510.496613 372.553375,512.424866 
	C367.380554,513.778198 364.372131,518.043579 364.173340,523.004456 
	C363.957001,528.403809 366.769592,531.695374 371.544830,533.634766 
	C374.921539,535.006042 378.300049,536.373352 381.664368,537.774536 
	C385.240021,539.263916 388.481323,541.158752 387.165009,545.830505 
	C385.889191,550.358276 381.788605,550.950623 378.278992,550.279785 
	C373.920197,549.446716 369.808960,547.318298 365.067047,545.554565 
	C364.520050,546.249695 363.441620,547.620239 362.211304,549.183777 
	C369.890991,556.721497 378.475189,557.598816 388.522156,554.299194 
M411.318756,530.374512 
	C410.935669,526.391663 410.552612,522.408813 410.128693,518.001587 
	C418.236694,518.001587 425.341339,518.001587 432.512695,518.001587 
	C432.512695,516.066040 432.512695,514.509338 432.512695,512.905212 
	C422.837219,512.905212 413.465027,512.905212 404.142578,512.905212 
	C404.142578,527.144348 404.142578,541.036560 404.142578,554.864136 
	C414.016876,554.864136 423.592224,554.864136 433.456238,554.864136 
	C433.351440,552.982422 433.264343,551.418091 433.155548,549.464355 
	C425.485596,549.464355 418.226349,549.464355 410.774658,549.464355 
	C410.774658,544.828430 410.774658,540.612244 410.774658,535.998535 
	C417.368500,535.998535 423.624420,535.998535 429.870483,535.998535 
	C429.870483,534.016846 429.870483,532.441223 429.870483,530.539307 
	C423.791168,530.539307 417.991699,530.539307 411.318756,530.374512 
M129.999283,540.463745 
	C129.999283,531.063965 129.999283,521.664246 129.999283,512.360962 
	C132.481628,512.162842 134.228409,512.023438 135.909241,511.889252 
	C135.909241,510.126495 135.909241,508.718231 135.909241,507.286682 
	C129.094955,507.286682 122.526344,507.286682 115.792824,507.286682 
	C115.890816,509.019043 115.972145,510.456879 116.073463,512.248108 
	C118.107513,512.248108 119.857117,512.248108 121.753120,512.248108 
	C121.753120,524.997803 121.753120,537.373352 121.753120,550.074951 
	C119.752678,550.074951 117.994659,550.074951 116.113937,550.074951 
	C116.113937,551.965637 116.113937,553.525940 116.113937,555.258728 
	C122.783195,555.258728 129.193176,555.258728 135.780273,555.258728 
	C135.780273,553.417908 135.780273,551.740112 135.780273,550.150696 
	C133.655655,549.996826 131.906631,549.870178 129.999268,549.732117 
	C129.999268,546.738953 129.999268,544.095642 129.999283,540.463745 
z"/>
<path fill="#060606" opacity="1.000000" stroke="none" 
	d="
M364.197815,91.047928 
	C364.206512,88.224640 364.115051,85.886574 364.243378,83.560646 
	C364.568756,77.662682 368.882660,73.351082 374.410583,73.279015 
	C379.626282,73.211021 384.152374,77.333321 384.858154,82.844910 
	C384.984467,83.831184 384.954987,84.840622 384.955109,85.839371 
	C384.958801,119.996140 385.064087,154.153351 384.920013,188.309525 
	C384.821198,211.736420 370.512512,231.187576 348.743561,238.080170 
	C316.361511,248.333115 282.559540,224.609283 281.963989,190.632141 
	C281.444305,160.983078 281.790955,131.318069 281.849396,101.660278 
	C281.862610,94.962021 286.101929,90.591705 292.130829,90.555908 
	C298.046387,90.520782 302.351166,95.037048 302.378967,101.650146 
	C302.453979,119.478012 302.369324,137.306625 302.472565,155.134216 
	C302.486694,157.571365 302.768219,160.190491 303.698242,162.400375 
	C305.606689,166.935287 309.503632,168.809891 314.262848,168.082794 
	C319.017181,167.356415 321.992218,164.341370 322.806885,159.537949 
	C323.110016,157.750687 322.972473,155.882385 322.972809,154.051041 
	C322.979462,119.394417 322.909576,84.737434 323.089783,50.081757 
	C323.106018,46.960648 324.061707,43.410923 325.758362,40.835915 
	C328.167908,37.178825 332.418945,36.472256 336.538391,37.767555 
	C340.708191,39.078701 343.041016,42.276524 343.619659,46.602356 
	C343.838928,48.241577 343.712250,49.929504 343.712402,51.595234 
	C343.716248,93.249832 343.715057,134.904434 343.719574,176.559036 
	C343.719757,178.224564 343.636719,179.904327 343.816681,181.552979 
	C344.383942,186.749115 348.353119,190.437744 353.448547,190.634811 
	C358.576874,190.833160 362.933075,187.531219 363.906982,182.489075 
	C364.250366,180.711182 364.189972,178.841278 364.190887,177.013336 
	C364.205078,148.521790 364.199097,120.030235 364.197815,91.047928 
z"/>
<path fill="#060606" opacity="1.000000" stroke="none" 
	d="
M288.434906,309.245880 
	C293.355560,308.567047 297.928070,307.889465 302.524811,307.608948 
	C314.138275,306.900208 321.391876,298.956085 320.025940,287.939728 
	C319.043884,280.019531 313.849670,275.827362 306.638916,273.474548 
	C289.509064,267.885193 275.494873,257.797333 264.626068,243.490158 
	C253.136520,228.365829 246.642380,211.301285 246.111435,192.214035 
	C245.824295,181.890961 245.894943,171.554779 245.971405,161.225754 
	C246.033813,152.792191 250.894043,147.574295 258.493225,147.437943 
	C265.980133,147.303574 271.315125,152.552994 271.523712,160.814545 
	C271.759125,170.139587 271.506958,179.475784 271.622528,188.805222 
	C271.983887,217.978134 289.271973,241.303711 316.686890,249.730972 
	C347.994659,259.354889 383.763794,239.756470 392.271698,207.954834 
	C394.014435,201.440628 394.609589,194.522018 394.940613,187.751068 
	C395.403870,178.275482 394.888489,168.754822 395.240356,159.270081 
	C395.487671,152.604202 400.721558,147.803040 407.198975,147.441467 
	C413.776367,147.074326 420.253998,151.375549 420.363312,157.764160 
	C420.701172,177.508240 423.152863,197.501083 416.715851,216.784225 
	C407.410400,244.660080 388.740021,263.512573 360.950714,273.165253 
	C350.492859,276.797821 345.831299,282.640533 346.503754,291.943573 
	C347.045471,299.437958 352.688324,305.865143 360.168365,307.036560 
	C363.599426,307.573853 367.134033,307.506012 370.624725,307.595734 
	C379.643188,307.827515 385.170410,312.731537 385.124817,320.544037 
	C385.082031,327.875458 379.213959,333.149017 370.729858,333.169189 
	C345.570099,333.229034 320.410034,333.217743 295.250214,333.164673 
	C288.719055,333.150909 283.888855,329.802399 282.116089,324.398956 
	C280.227173,318.641541 282.225952,313.638947 288.434906,309.245880 
z"/>
<path fill="#121212" opacity="1.000000" stroke="none" 
	d="
M191.294678,423.999878 
	C191.294312,413.506409 191.331482,403.512726 191.271896,393.519592 
	C191.252640,390.291718 190.994965,387.028107 187.056015,385.950317 
	C182.081131,384.589050 179.111603,387.087311 179.034790,393.106995 
	C178.894577,404.098053 178.986969,415.092102 178.985321,426.084900 
	C178.984344,432.580658 179.048416,439.077118 178.966858,445.571838 
	C178.924850,448.917084 178.282364,452.242126 174.018585,452.294617 
	C169.462173,452.350677 168.829391,448.986176 168.829498,445.364838 
	C168.830002,428.209381 168.859406,411.053864 168.805252,393.898560 
	C168.786240,387.874817 166.921494,385.562225 162.510178,385.753723 
	C157.715851,385.961823 156.440659,389.056549 156.443253,393.220642 
	C156.453537,409.709839 156.441238,426.199066 156.435410,442.688263 
	C156.434937,444.020630 156.416534,445.352966 156.412491,446.685333 
	C156.402451,449.991516 154.989212,452.259552 151.494232,452.328552 
	C147.905212,452.399445 146.502884,449.937042 146.469986,446.762115 
	C146.361313,436.270416 146.384003,425.777283 146.371063,415.284698 
	C146.361603,407.623047 146.234009,399.958130 146.410141,392.300476 
	C146.719437,378.853882 158.862656,371.689209 171.121109,377.440796 
	C172.606567,378.137787 174.947891,378.300049 176.378281,377.623230 
	C189.059952,371.622650 201.159012,378.497589 201.418701,392.469696 
	C201.746735,410.118713 201.530136,427.778442 201.488174,445.433380 
	C201.479630,449.028870 200.595459,452.398407 196.102402,452.274353 
	C191.865936,452.157410 191.300461,448.895386 191.300720,445.486267 
	C191.301239,438.490814 191.296951,431.495361 191.294678,423.999878 
z"/>
<path fill="#121212" opacity="1.000000" stroke="none" 
	d="
M113.348068,442.783936 
	C113.348907,434.700958 113.348907,427.088898 113.348907,419.600922 
	C101.242851,417.730957 101.244392,417.730957 101.243134,429.022705 
	C101.242500,434.679321 101.270828,440.336304 101.217682,445.992462 
	C101.184372,449.537445 99.981453,452.461487 95.867622,452.301392 
	C92.117569,452.155457 90.988731,449.403748 90.990585,446.031036 
	C91.000648,427.730225 90.851067,409.427490 91.077232,391.129395 
	C91.188881,382.096344 97.816109,375.843567 106.661896,375.623108 
	C115.971123,375.391083 123.205467,381.126190 123.434532,390.344971 
	C123.901375,409.132904 123.654732,427.939484 123.609413,446.738159 
	C123.601707,449.935699 121.985115,452.304565 118.525108,452.322388 
	C115.033401,452.340393 113.670212,449.904297 113.393974,446.746765 
	C113.292801,445.590302 113.357956,444.419250 113.348068,442.783936 
M113.412079,395.616272 
	C113.401466,394.452820 113.403992,393.289093 113.377823,392.126007 
	C113.291168,388.273621 111.768593,385.743500 107.500809,385.661591 
	C102.986763,385.574921 101.300850,388.201813 101.190529,392.251862 
	C101.100037,395.574036 101.151390,398.900177 101.147362,402.224579 
	C101.139137,409.015320 101.153961,408.753174 107.854935,409.078796 
	C112.188927,409.289490 114.049385,408.062103 113.462677,403.555237 
	C113.164787,401.266998 113.412148,398.907806 113.412079,395.616272 
z"/>
<path fill="#121212" opacity="1.000000" stroke="none" 
	d="
M289.633301,435.984680 
	C289.587433,440.140228 289.661255,443.806030 289.458984,447.456573 
	C289.288818,450.527924 287.505737,452.943481 284.415070,452.149475 
	C282.573700,451.676392 280.655914,449.341370 279.898071,447.403290 
	C279.103333,445.370972 279.622925,442.812439 279.621887,440.483887 
	C279.613281,420.844452 279.616974,401.204987 279.616943,381.565552 
	C279.616943,379.778442 279.616943,377.991333 279.616943,376.015808 
	C286.907043,376.015808 293.736145,375.440613 300.420258,376.178589 
	C307.022003,376.907440 311.961792,383.747681 312.057495,391.667816 
	C312.276703,409.806610 312.176697,427.949829 312.119507,446.090942 
	C312.109375,449.313538 311.080750,452.239075 307.169189,452.309692 
	C302.924957,452.386383 302.040314,449.413818 302.041229,445.893066 
	C302.045685,428.583740 302.207275,411.271240 301.872498,393.968384 
	C301.821136,391.313232 300.144867,387.402069 298.056427,386.322083 
	C292.428925,383.412018 289.636078,385.667633 289.634338,392.048553 
	C289.630432,406.528473 289.633301,421.008423 289.633301,435.984680 
z"/>
<path fill="#0F0F0F" opacity="1.000000" stroke="none" 
	d="
M357.855591,408.907135 
	C361.047272,408.887360 363.841827,408.887360 366.866089,408.887360 
	C366.866089,419.752380 367.691376,430.248962 366.604523,440.543701 
	C365.737610,448.754913 357.918976,453.123596 349.007629,452.359375 
	C341.618744,451.725708 335.247040,445.708923 335.051147,437.791931 
	C334.660034,421.981689 334.599243,406.145630 335.054260,390.338959 
	C335.318756,381.150238 342.574402,375.372681 351.874329,375.649628 
	C360.809875,375.915710 366.920959,382.054901 367.346527,391.257721 
	C367.438660,393.250916 367.952515,395.539459 367.179871,397.176422 
	C366.259583,399.126221 364.197144,401.766144 362.565125,401.811890 
	C360.867035,401.859558 358.569885,399.463043 357.513428,397.584778 
	C356.643494,396.038025 357.204376,393.686432 357.131317,391.691528 
	C356.994354,387.951324 355.275787,385.755585 351.323944,385.711884 
	C347.494537,385.669495 345.178558,387.595215 345.149078,391.359711 
	C345.030365,406.512543 345.013458,421.667908 345.177460,436.819946 
	C345.217682,440.534943 347.554077,442.410217 351.453979,442.314911 
	C355.244049,442.222290 356.929016,440.116852 357.055878,436.686066 
	C357.240356,431.697205 357.258881,426.694702 357.094360,421.706390 
	C357.059662,420.654663 355.927582,419.639313 355.301788,418.606812 
	C354.198486,416.786591 351.839630,414.516876 352.291748,413.252594 
	C352.944214,411.428131 355.636536,410.333160 357.855591,408.907135 
z"/>
<path fill="#101010" opacity="1.000000" stroke="none" 
	d="
M224.874573,387.126038 
	C228.644119,377.723083 234.791260,374.283600 244.341827,375.924500 
	C251.562683,377.165100 256.592743,383.778442 256.643921,392.485504 
	C256.728149,406.814575 256.737457,421.145203 256.626160,435.473999 
	C256.545227,445.890106 250.217865,452.377655 240.420670,452.412354 
	C230.751663,452.446594 224.267456,445.806152 224.185394,435.443512 
	C224.071930,421.114777 224.140091,406.784393 224.185242,392.454926 
	C224.190430,390.806488 224.545578,389.159149 224.874573,387.126038 
M237.987701,442.104462 
	C244.620331,442.575317 246.513870,441.212372 246.572159,435.106384 
	C246.706863,420.995361 246.634033,406.882172 246.607086,392.769928 
	C246.599136,388.611298 245.182327,385.570312 240.326706,385.646423 
	C235.441818,385.723022 234.255936,388.928284 234.251038,393.004669 
	C234.234055,407.116974 234.131516,421.231659 234.393829,435.339233 
	C234.434402,437.521362 236.215347,439.671173 237.987701,442.104462 
z"/>
<path fill="#0E0E0E" opacity="1.000000" stroke="none" 
	d="
M493.659912,375.800659 
	C506.268890,375.453552 512.458374,381.184296 512.531494,393.266418 
	C512.621277,408.088989 512.691650,422.918518 512.327209,437.734161 
	C512.143127,445.213440 506.805267,450.927856 500.053009,452.199005 
	C491.978302,453.719147 484.886871,450.457611 481.824463,443.361847 
	C480.737335,440.842926 480.192841,437.902954 480.161652,435.146576 
	C480.001373,420.989563 479.993195,406.828827 480.123566,392.671173 
	C480.210083,383.278992 484.645386,377.796265 493.659912,375.800659 
M502.671692,434.023010 
	C502.666626,420.239105 502.711487,406.454895 502.624237,392.671509 
	C502.599945,388.832367 501.281189,385.775513 496.679932,385.627441 
	C492.563171,385.494965 490.271210,387.701355 490.231171,391.575043 
	C490.076691,406.518646 490.010345,421.467102 490.242645,436.408600 
	C490.320831,441.438446 494.834167,444.283875 498.947571,441.816833 
	C500.872009,440.662689 501.462708,437.284668 502.671692,434.023010 
z"/>
<path fill="#101010" opacity="1.000000" stroke="none" 
	d="
M434.763733,376.562561 
	C447.145630,374.075531 455.385651,378.821991 457.055969,389.071442 
	C457.582550,392.302490 457.155975,395.351074 453.475220,396.252106 
	C449.512360,397.222260 447.570801,394.824677 447.055115,391.181702 
	C446.477539,387.101440 444.179810,385.416931 440.181885,385.752716 
	C436.077942,386.097504 435.076874,388.890991 434.944244,392.359467 
	C434.893372,393.689545 434.917603,395.022705 434.915680,396.354462 
	C434.899994,407.164673 434.899811,407.168030 445.346222,409.572021 
	C450.863037,410.841614 455.270477,414.214020 455.969543,419.587219 
	C456.916473,426.865753 457.192871,434.517731 455.984772,441.711914 
	C454.713257,449.283783 447.547363,453.005249 439.097382,452.383057 
	C431.981537,451.859100 425.977539,446.251770 424.962006,439.064392 
	C424.490723,435.728912 424.642273,432.465546 428.856628,431.706177 
	C432.635925,431.025269 434.430023,433.324402 434.922119,436.713959 
	C435.550354,441.041382 438.002289,442.758759 442.195007,442.222809 
	C446.325378,441.694855 446.942535,438.643433 447.054413,435.278320 
	C447.087585,434.280457 447.068298,433.280823 447.070251,432.281982 
	C447.092255,421.102295 447.068420,421.193542 436.307770,418.396301 
	C429.829895,416.712372 425.949860,412.065796 425.110748,405.706299 
	C424.377319,400.147583 424.421143,394.351135 425.101410,388.779327 
	C425.773651,383.273499 428.982727,378.946686 434.763733,376.562561 
z"/>
<path fill="#111111" opacity="1.000000" stroke="none" 
	d="
M547.028015,406.835510 
	C549.478027,407.835266 551.624084,408.720825 553.855652,409.091797 
	C561.882629,410.426147 567.169922,415.574890 567.893188,423.665924 
	C568.306885,428.293304 568.309814,433.015656 567.912476,437.645020 
	C567.133789,446.716034 560.597778,452.421600 551.536621,452.427673 
	C543.183533,452.433289 536.581116,446.736298 535.770996,438.742523 
	C535.455811,435.632904 535.427124,432.491302 539.466187,431.714539 
	C543.288696,430.979340 545.130371,433.281677 545.667664,436.594116 
	C546.357544,440.848053 548.571899,442.807007 552.847778,442.226135 
	C557.161072,441.640137 557.847595,438.441956 557.929077,434.886566 
	C557.963379,433.387512 557.939819,431.887054 557.938110,430.387238 
	C557.926270,420.341064 557.925842,420.341095 548.138062,418.593048 
	C541.368347,417.384003 536.238342,411.901184 535.782043,404.805176 
	C535.461975,399.828461 535.431885,394.794769 535.779480,389.821991 
	C536.376099,381.287811 542.747131,375.716583 551.487122,375.626953 
	C560.292114,375.536652 567.110168,381.389954 567.934265,389.796051 
	C568.241638,392.930725 567.365173,395.613159 563.973816,396.329071 
	C560.575317,397.046539 558.472778,395.223389 558.024841,391.888611 
	C557.429993,387.459351 555.153259,385.267029 550.645752,385.778595 
	C546.165222,386.287109 545.648376,389.682861 545.772949,393.164337 
	C545.932251,397.610748 546.418152,402.045471 547.028015,406.835510 
z"/>
<path fill="#080808" opacity="1.000000" stroke="none" 
	d="
M334.633362,520.561890 
	C337.293396,528.066406 337.482574,535.235291 334.369507,542.229309 
	C331.058777,549.667358 325.061493,554.110413 317.113251,554.827698 
	C309.728394,555.494202 302.236053,554.969910 294.479431,554.969910 
	C294.479431,539.222961 294.479431,523.381897 294.479431,506.682404 
	C302.443237,507.037140 310.376892,506.965149 318.199860,507.860535 
	C325.778839,508.728027 331.323822,513.087585 334.633362,520.561890 
M302.156555,530.502319 
	C302.156555,536.456970 302.156555,542.411560 302.156555,548.748230 
	C311.222290,548.816589 320.154999,550.108459 325.870850,541.325256 
	C329.508759,535.735046 329.126740,525.096619 325.197845,519.961609 
	C319.199951,512.122375 310.716095,513.434753 302.156555,513.617249 
	C302.156555,519.221069 302.156555,524.362976 302.156555,530.502319 
z"/>
<path fill="#080808" opacity="1.000000" stroke="none" 
	d="
M236.928680,521.267578 
	C241.810486,537.692383 235.168182,551.885803 220.789841,554.490723 
	C212.903976,555.919373 204.663162,555.388977 196.368134,555.751343 
	C196.368134,539.178528 196.368134,523.442993 196.368134,506.459625 
	C205.263184,507.073059 214.188919,507.062469 222.878387,508.490082 
	C229.578491,509.590881 234.167892,514.498108 236.928680,521.267578 
M223.816238,516.513000 
	C217.792755,512.796570 211.219421,513.254944 204.474121,513.695801 
	C204.474121,525.500671 204.474121,537.015381 204.474121,548.495911 
	C217.892212,549.796631 225.440125,547.073486 228.734650,539.889954 
	C232.136551,532.472290 230.258347,522.604126 223.816238,516.513000 
z"/>
<path fill="#090909" opacity="1.000000" stroke="none" 
	d="
M144.987549,538.729858 
	C144.986145,527.967896 144.986145,517.672974 144.986145,507.183655 
	C147.638657,507.183655 149.916519,507.183655 152.827393,507.183655 
	C152.827393,512.924988 152.826050,518.698120 152.827820,524.471191 
	C152.829193,528.970886 152.697418,533.475769 152.868256,537.969116 
	C153.164612,545.763000 157.612061,550.023804 165.147232,549.984680 
	C172.781143,549.945007 177.068130,545.706909 177.146149,537.819275 
	C177.246307,527.694641 177.170486,517.568298 177.170486,507.216187 
	C179.864883,507.216187 182.148331,507.216187 185.172913,507.216187 
	C185.172913,512.453491 185.172989,517.873901 185.172897,523.294250 
	C185.172806,527.793945 185.191833,532.293762 185.168671,536.793335 
	C185.102783,549.589722 178.375031,556.437439 165.501434,556.835449 
	C153.566910,557.204407 145.787674,550.515137 144.987549,538.729858 
z"/>
<path fill="#070707" opacity="1.000000" stroke="none" 
	d="
M251.922974,552.949707 
	C249.145645,554.324646 246.479279,555.325256 243.812912,556.325806 
	C243.447815,555.892639 243.082718,555.459412 242.717621,555.026184 
	C243.771103,552.364258 244.843384,549.709534 245.874832,547.039062 
	C250.595673,534.816406 255.406281,522.626770 259.942841,510.336029 
	C260.994598,507.486572 262.454041,506.705231 265.341278,506.734100 
	C268.179443,506.762451 269.765350,507.387817 270.851196,510.294312 
	C276.410126,525.173645 282.215607,539.960815 287.951782,554.824097 
	C280.169189,556.220459 280.176147,556.217834 277.500244,549.167786 
	C276.622437,546.855103 275.697998,544.560181 274.761353,542.171753 
	C269.916321,542.171753 265.243286,542.410034 260.607941,542.094604 
	C257.053192,541.852661 254.992783,542.865234 254.204514,546.487732 
	C253.750198,548.575500 252.774811,550.549927 251.922974,552.949707 
M263.426056,520.914734 
	C261.661713,525.838501 259.897400,530.762268 258.124756,535.709229 
	C263.089661,535.709229 267.643341,535.709229 272.596680,535.709229 
	C270.144775,528.725891 267.829956,522.132996 265.328583,515.008850 
	C264.703400,517.072327 264.227509,518.643250 263.426056,520.914734 
z"/>
<path fill="#080808" opacity="1.000000" stroke="none" 
	d="
M448.672943,524.039185 
	C445.880188,530.269714 445.564697,536.302185 447.922058,542.298828 
	C451.099121,550.380737 461.555817,553.309387 468.111420,547.638977 
	C470.099335,545.919434 470.644379,542.531799 472.270569,538.993713 
	C467.122223,538.993713 463.524200,538.993713 459.827576,538.993713 
	C459.827576,537.024048 459.827576,535.463867 459.827576,533.730835 
	C465.712372,533.730835 471.300995,533.730835 477.173828,533.730835 
	C477.173828,540.838013 477.173828,547.755981 477.173828,556.135437 
	C474.682922,554.931824 472.708771,553.977844 469.863525,552.602966 
	C466.572235,555.988098 460.800018,557.531982 455.126007,555.688354 
	C450.789337,554.279175 446.216614,551.548462 443.343933,548.083252 
	C436.058960,539.295715 437.690155,524.434814 445.921936,516.673523 
	C453.507690,509.521301 466.044281,509.617554 475.382782,517.140137 
	C474.923187,517.877808 474.465698,518.676147 473.944855,519.430847 
	C473.382660,520.245422 472.761261,521.019165 472.243805,521.706909 
	C461.265961,514.981873 454.750305,515.637939 448.672943,524.039185 
z"/>
<path fill="#060606" opacity="1.000000" stroke="none" 
	d="
M532.548950,540.989197 
	C532.548950,531.368103 532.548950,522.244446 532.548950,512.788391 
	C539.361328,512.788391 545.816528,512.435364 552.215271,512.885071 
	C558.975281,513.360229 563.322876,517.612427 563.819031,523.183350 
	C564.315857,528.761902 561.742798,531.998291 554.815918,534.533875 
	C554.352722,534.703369 553.926453,534.973877 554.390808,534.739807 
	C558.528625,541.164734 562.703979,547.647949 567.046204,554.390259 
	C561.035522,556.216614 558.025940,554.930786 555.857056,549.689758 
	C551.284546,538.640808 548.632935,537.014160 539.702393,537.795044 
	C539.702393,543.295654 539.702393,548.878296 539.702393,554.809937 
	C537.161438,554.809937 535.117432,554.809937 532.548950,554.809937 
	C532.548950,550.385132 532.548950,545.935913 532.548950,540.989197 
M554.383789,519.882446 
	C549.572266,518.958984 544.760681,518.035583 539.664185,517.057434 
	C539.664185,522.898132 539.664185,527.289978 539.664185,531.958435 
	C542.865173,531.958435 545.844727,532.217651 548.763428,531.906250 
	C555.517029,531.185730 557.949646,526.515625 554.383789,519.882446 
z"/>
<path fill="#070707" opacity="1.000000" stroke="none" 
	d="
M86.917603,556.217896 
	C75.668343,553.498474 69.037209,546.332336 67.909233,536.078552 
	C66.483749,523.120239 71.215500,512.717896 80.658539,508.050262 
	C89.820137,503.521729 100.787109,505.412933 109.036995,513.188232 
	C107.722313,514.755005 106.384140,516.349792 105.822205,517.019470 
	C100.455330,515.279602 95.807610,512.743652 91.024849,512.456482 
	C83.289421,511.991913 77.634041,518.294434 76.222351,527.202515 
	C74.837219,535.942993 78.031044,544.332336 84.103668,547.904602 
	C90.317467,551.559937 98.057671,550.305359 106.236542,544.028015 
	C107.450859,545.912842 108.649956,547.773987 110.061134,549.964294 
	C103.401649,555.910278 95.721603,557.303467 86.917603,556.217896 
z"/>
<path fill="#040404" opacity="1.000000" stroke="none" 
	d="
M522.442749,532.943298 
	C522.448547,535.932678 522.529724,538.435059 522.446533,540.931946 
	C522.149902,549.834229 516.179688,555.784729 507.248169,556.149902 
	C495.122223,556.645569 487.788910,551.981445 487.214447,542.375244 
	C486.630890,532.616943 487.085602,522.796631 487.085602,512.783936 
	C489.462067,512.783936 491.546875,512.783936 494.008514,512.783936 
	C494.008514,521.801331 493.929138,530.598633 494.031799,539.393860 
	C494.126373,547.499329 499.754364,551.867859 507.671051,550.166443 
	C512.842590,549.054993 515.426208,545.757141 515.508789,539.603394 
	C515.626831,530.800720 515.538879,521.995239 515.538879,512.875122 
	C517.928223,512.875122 519.972412,512.875122 522.442749,512.875122 
	C522.442749,519.530212 522.442749,525.992004 522.442749,532.943298 
z"/>
<path fill="#0A0A0A" opacity="1.000000" stroke="none" 
	d="
M600.223022,550.879395 
	C599.092468,544.863098 596.041870,542.210510 590.132202,543.418030 
	C588.853516,543.679260 587.444763,543.639954 586.149231,543.421997 
	C581.882080,542.704102 579.720642,544.570496 578.874695,548.672791 
	C577.855896,553.613647 575.570312,556.981995 569.282288,554.558777 
	C574.483704,541.136780 579.729065,527.597351 584.983215,514.061462 
	C585.160156,513.605652 585.326782,513.074097 585.668091,512.765625 
	C587.522278,511.089233 592.635498,512.273010 593.586182,514.704529 
	C598.775513,527.976990 603.894287,541.277100 609.172241,554.916260 
	C605.340027,555.139832 601.467529,556.645996 600.223022,550.879395 
M594.731567,535.244934 
	C592.951782,530.358643 591.171997,525.472351 589.158325,519.943726 
	C586.932190,526.171692 584.885193,531.898682 582.704956,537.998474 
	C586.659363,537.998474 589.958008,538.095154 593.241089,537.911682 
	C593.851868,537.877625 594.399719,536.717407 594.731567,535.244934 
z"/>
<path fill="#0A0A0A" opacity="1.000000" stroke="none" 
	d="
M388.195892,554.528320 
	C378.475189,557.598816 369.890991,556.721497 362.211304,549.183777 
	C363.441620,547.620239 364.520050,546.249695 365.067047,545.554565 
	C369.808960,547.318298 373.920197,549.446716 378.278992,550.279785 
	C381.788605,550.950623 385.889191,550.358276 387.165009,545.830505 
	C388.481323,541.158752 385.240021,539.263916 381.664368,537.774536 
	C378.300049,536.373352 374.921539,535.006042 371.544830,533.634766 
	C366.769592,531.695374 363.957001,528.403809 364.173340,523.004456 
	C364.372131,518.043579 367.380554,513.778198 372.553375,512.424866 
	C379.923492,510.496613 387.036407,511.089569 393.461823,516.482666 
	C392.337677,518.032837 391.304596,519.457397 390.878479,520.045044 
	C386.016174,518.967712 381.783295,517.380737 377.548859,517.376465 
	C375.551025,517.374451 372.485840,520.105469 371.899475,522.165894 
	C371.458832,523.714172 373.742279,526.935669 375.621521,528.055115 
	C379.278442,530.233398 383.619720,531.222839 387.469238,533.126038 
	C397.214264,537.943909 397.668518,548.346985 388.195892,554.528320 
z"/>
<path fill="#020202" opacity="1.000000" stroke="none" 
	d="
M411.755493,530.456909 
	C417.991699,530.539307 423.791168,530.539307 429.870483,530.539307 
	C429.870483,532.441223 429.870483,534.016846 429.870483,535.998535 
	C423.624420,535.998535 417.368500,535.998535 410.774658,535.998535 
	C410.774658,540.612244 410.774658,544.828430 410.774658,549.464355 
	C418.226349,549.464355 425.485596,549.464355 433.155548,549.464355 
	C433.264343,551.418091 433.351440,552.982422 433.456238,554.864136 
	C423.592224,554.864136 414.016876,554.864136 404.142578,554.864136 
	C404.142578,541.036560 404.142578,527.144348 404.142578,512.905212 
	C413.465027,512.905212 422.837219,512.905212 432.512695,512.905212 
	C432.512695,514.509338 432.512695,516.066040 432.512695,518.001587 
	C425.341339,518.001587 418.236694,518.001587 410.128693,518.001587 
	C410.552612,522.408813 410.935669,526.391663 411.755493,530.456909 
z"/>
<path fill="#010101" opacity="1.000000" stroke="none" 
	d="
M129.999268,540.958008 
	C129.999268,544.095642 129.999268,546.738953 129.999268,549.732117 
	C131.906631,549.870178 133.655655,549.996826 135.780273,550.150696 
	C135.780273,551.740112 135.780273,553.417908 135.780273,555.258728 
	C129.193176,555.258728 122.783195,555.258728 116.113937,555.258728 
	C116.113937,553.525940 116.113937,551.965637 116.113937,550.074951 
	C117.994659,550.074951 119.752678,550.074951 121.753120,550.074951 
	C121.753120,537.373352 121.753120,524.997803 121.753120,512.248108 
	C119.857117,512.248108 118.107513,512.248108 116.073463,512.248108 
	C115.972145,510.456879 115.890816,509.019043 115.792824,507.286682 
	C122.526344,507.286682 129.094955,507.286682 135.909241,507.286682 
	C135.909241,508.718231 135.909241,510.126495 135.909241,511.889252 
	C134.228409,512.023438 132.481628,512.162842 129.999283,512.360962 
	C129.999283,521.664246 129.999283,531.063965 129.999268,540.958008 
z"/>
<path fill="#EFEFEF" opacity="1.000000" stroke="none" 
	d="
M113.412544,396.098480 
	C113.412148,398.907806 113.164787,401.266998 113.462677,403.555237 
	C114.049385,408.062103 112.188927,409.289490 107.854935,409.078796 
	C101.153961,408.753174 101.139137,409.015320 101.147362,402.224579 
	C101.151390,398.900177 101.100037,395.574036 101.190529,392.251862 
	C101.300850,388.201813 102.986763,385.574921 107.500809,385.661591 
	C111.768593,385.743500 113.291168,388.273621 113.377823,392.126007 
	C113.403992,393.289093 113.401466,394.452820 113.412544,396.098480 
z"/>
<path fill="#EDEDED" opacity="1.000000" stroke="none" 
	d="
M237.589569,441.970184 
	C236.215347,439.671173 234.434402,437.521362 234.393829,435.339233 
	C234.131516,421.231659 234.234055,407.116974 234.251038,393.004669 
	C234.255936,388.928284 235.441818,385.723022 240.326706,385.646423 
	C245.182327,385.570312 246.599136,388.611298 246.607086,392.769928 
	C246.634033,406.882172 246.706863,420.995361 246.572159,435.106384 
	C246.513870,441.212372 244.620331,442.575317 237.589569,441.970184 
z"/>
<path fill="#EDEDED" opacity="1.000000" stroke="none" 
	d="
M502.664795,434.468750 
	C501.462708,437.284668 500.872009,440.662689 498.947571,441.816833 
	C494.834167,444.283875 490.320831,441.438446 490.242645,436.408600 
	C490.010345,421.467102 490.076691,406.518646 490.231171,391.575043 
	C490.271210,387.701355 492.563171,385.494965 496.679932,385.627441 
	C501.281189,385.775513 502.599945,388.832367 502.624237,392.671509 
	C502.711487,406.454895 502.666626,420.239105 502.664795,434.468750 
z"/>
<path fill="#F8F8F8" opacity="1.000000" stroke="none" 
	d="
M302.156555,530.003601 
	C302.156555,524.362976 302.156555,519.221069 302.156555,513.617249 
	C310.716095,513.434753 319.199951,512.122375 325.197845,519.961609 
	C329.126740,525.096619 329.508759,535.735046 325.870850,541.325256 
	C320.154999,550.108459 311.222290,548.816589 302.156555,548.748230 
	C302.156555,542.411560 302.156555,536.456970 302.156555,530.003601 
z"/>
<path fill="#F8F8F8" opacity="1.000000" stroke="none" 
	d="
M224.097916,516.760742 
	C230.258347,522.604126 232.136551,532.472290 228.734650,539.889954 
	C225.440125,547.073486 217.892212,549.796631 204.474121,548.495911 
	C204.474121,537.015381 204.474121,525.500671 204.474121,513.695801 
	C211.219421,513.254944 217.792755,512.796570 224.097916,516.760742 
z"/>
<path fill="#F5F5F5" opacity="1.000000" stroke="none" 
	d="
M263.588806,520.564453 
	C264.227509,518.643250 264.703400,517.072327 265.328583,515.008850 
	C267.829956,522.132996 270.144775,528.725891 272.596680,535.709229 
	C267.643341,535.709229 263.089661,535.709229 258.124756,535.709229 
	C259.897400,530.762268 261.661713,525.838501 263.588806,520.564453 
z"/>
<path fill="#F5F5F5" opacity="1.000000" stroke="none" 
	d="
M554.683960,520.126160 
	C557.949646,526.515625 555.517029,531.185730 548.763428,531.906250 
	C545.844727,532.217651 542.865173,531.958435 539.664185,531.958435 
	C539.664185,527.289978 539.664185,522.898132 539.664185,517.057434 
	C544.760681,518.035583 549.572266,518.958984 554.683960,520.126160 
z"/>
<path fill="#F5F5F5" opacity="1.000000" stroke="none" 
	d="
M594.854126,535.660889 
	C594.399719,536.717407 593.851868,537.877625 593.241089,537.911682 
	C589.958008,538.095154 586.659363,537.998474 582.704956,537.998474 
	C584.885193,531.898682 586.932190,526.171692 589.158325,519.943726 
	C591.171997,525.472351 592.951782,530.358643 594.854126,535.660889 
z"/>
</svg>